<mxfile host="app.diagrams.net" modified="2022-03-24T07:05:27.886Z" agent="5.0 (Windows NT 10.0; Win64; x64) AppleWebKit/537.36 (KHTML, like Gecko) Chrome/99.0.4844.74 Safari/537.36 Edg/99.0.1150.46" etag="IsiAxHJourzzUwylOPKB" version="17.2.1" type="github">
  <diagram id="gWBOqwuCTexdovqESbqp" name="Page-1">
    <mxGraphModel dx="1246" dy="573" grid="0" gridSize="10" guides="1" tooltips="1" connect="1" arrows="1" fold="1" page="1" pageScale="1" pageWidth="827" pageHeight="1169" math="0" shadow="0">
      <root>
        <mxCell id="0" />
        <mxCell id="1" parent="0" />
        <mxCell id="mzly6rjB0d2bTAhVQwtF-1" value="BEGIN" style="ellipse;whiteSpace=wrap;html=1;" parent="1" vertex="1">
          <mxGeometry x="250" y="40" width="100" height="50" as="geometry" />
        </mxCell>
        <mxCell id="mzly6rjB0d2bTAhVQwtF-5" value="FC" style="rhombus;whiteSpace=wrap;html=1;fontFamily=Helvetica;fontSize=12;" parent="1" vertex="1">
          <mxGeometry x="255" y="332" width="90" height="60" as="geometry" />
        </mxCell>
        <mxCell id="mzly6rjB0d2bTAhVQwtF-6" value="" style="endArrow=none;html=1;rounded=0;fontFamily=Helvetica;fontSize=12;exitX=1;exitY=0.5;exitDx=0;exitDy=0;" parent="1" source="mzly6rjB0d2bTAhVQwtF-5" edge="1">
          <mxGeometry width="50" height="50" relative="1" as="geometry">
            <mxPoint x="371" y="292" as="sourcePoint" />
            <mxPoint x="411" y="362" as="targetPoint" />
          </mxGeometry>
        </mxCell>
        <mxCell id="mzly6rjB0d2bTAhVQwtF-7" value="" style="endArrow=classic;html=1;rounded=0;fontFamily=Helvetica;fontSize=12;entryX=0.5;entryY=0;entryDx=0;entryDy=0;" parent="1" target="mzly6rjB0d2bTAhVQwtF-16" edge="1">
          <mxGeometry width="50" height="50" relative="1" as="geometry">
            <mxPoint x="409.5" y="363" as="sourcePoint" />
            <mxPoint x="410" y="413" as="targetPoint" />
          </mxGeometry>
        </mxCell>
        <mxCell id="mzly6rjB0d2bTAhVQwtF-10" value="" style="endArrow=classic;html=1;rounded=0;fontFamily=Helvetica;fontSize=12;exitX=0.5;exitY=1;exitDx=0;exitDy=0;entryX=0.501;entryY=-0.128;entryDx=0;entryDy=0;entryPerimeter=0;" parent="1" target="LZAnv2CxnYplD1Uf9KJ6-15" edge="1">
          <mxGeometry width="50" height="50" relative="1" as="geometry">
            <mxPoint x="300" y="160" as="sourcePoint" />
            <mxPoint x="300" y="180" as="targetPoint" />
          </mxGeometry>
        </mxCell>
        <mxCell id="mzly6rjB0d2bTAhVQwtF-11" value="" style="endArrow=classic;html=1;rounded=0;fontFamily=Helvetica;fontSize=12;exitX=0.5;exitY=1;exitDx=0;exitDy=0;entryX=0.504;entryY=-0.188;entryDx=0;entryDy=0;entryPerimeter=0;" parent="1" source="mzly6rjB0d2bTAhVQwtF-1" target="LZAnv2CxnYplD1Uf9KJ6-2" edge="1">
          <mxGeometry width="50" height="50" relative="1" as="geometry">
            <mxPoint x="370" y="270" as="sourcePoint" />
            <mxPoint x="300" y="120" as="targetPoint" />
          </mxGeometry>
        </mxCell>
        <mxCell id="mzly6rjB0d2bTAhVQwtF-13" value="" style="endArrow=none;html=1;rounded=0;fontFamily=Helvetica;fontSize=12;exitX=0;exitY=0.5;exitDx=0;exitDy=0;" parent="1" source="mzly6rjB0d2bTAhVQwtF-5" edge="1">
          <mxGeometry width="50" height="50" relative="1" as="geometry">
            <mxPoint x="371" y="372" as="sourcePoint" />
            <mxPoint x="201" y="362" as="targetPoint" />
          </mxGeometry>
        </mxCell>
        <mxCell id="mzly6rjB0d2bTAhVQwtF-14" value="" style="endArrow=classic;html=1;rounded=0;fontFamily=Helvetica;fontSize=12;" parent="1" edge="1">
          <mxGeometry width="50" height="50" relative="1" as="geometry">
            <mxPoint x="201" y="362" as="sourcePoint" />
            <mxPoint x="202" y="391" as="targetPoint" />
          </mxGeometry>
        </mxCell>
        <mxCell id="mzly6rjB0d2bTAhVQwtF-16" value="END" style="ellipse;whiteSpace=wrap;html=1;fontFamily=Helvetica;fontSize=12;" parent="1" vertex="1">
          <mxGeometry x="369.5" y="406" width="81" height="50" as="geometry" />
        </mxCell>
        <mxCell id="mzly6rjB0d2bTAhVQwtF-18" value="" style="endArrow=none;html=1;rounded=0;fontFamily=Helvetica;fontSize=12;" parent="1" edge="1">
          <mxGeometry width="50" height="50" relative="1" as="geometry">
            <mxPoint x="203" y="547" as="sourcePoint" />
            <mxPoint x="120" y="547" as="targetPoint" />
            <Array as="points">
              <mxPoint x="156" y="547" />
            </Array>
          </mxGeometry>
        </mxCell>
        <mxCell id="mzly6rjB0d2bTAhVQwtF-19" value="" style="endArrow=none;html=1;rounded=0;fontFamily=Helvetica;fontSize=12;" parent="1" edge="1">
          <mxGeometry width="50" height="50" relative="1" as="geometry">
            <mxPoint x="120" y="548" as="sourcePoint" />
            <mxPoint x="120" y="313" as="targetPoint" />
          </mxGeometry>
        </mxCell>
        <mxCell id="mzly6rjB0d2bTAhVQwtF-20" value="" style="endArrow=classic;html=1;rounded=0;fontFamily=Helvetica;fontSize=12;" parent="1" edge="1">
          <mxGeometry width="50" height="50" relative="1" as="geometry">
            <mxPoint x="120" y="313" as="sourcePoint" />
            <mxPoint x="300" y="313" as="targetPoint" />
          </mxGeometry>
        </mxCell>
        <mxCell id="mzly6rjB0d2bTAhVQwtF-21" value="1" style="text;html=1;strokeColor=none;fillColor=none;align=center;verticalAlign=middle;whiteSpace=wrap;rounded=0;fontFamily=Helvetica;fontSize=12;" parent="1" vertex="1">
          <mxGeometry x="171" width="60" height="30" as="geometry" />
        </mxCell>
        <mxCell id="mzly6rjB0d2bTAhVQwtF-22" value="2" style="text;html=1;strokeColor=none;fillColor=none;align=center;verticalAlign=middle;whiteSpace=wrap;rounded=0;fontFamily=Helvetica;fontSize=12;" parent="1" vertex="1">
          <mxGeometry x="269.5" width="60" height="30" as="geometry" />
        </mxCell>
        <mxCell id="mzly6rjB0d2bTAhVQwtF-23" value="3" style="text;html=1;strokeColor=none;fillColor=none;align=center;verticalAlign=middle;whiteSpace=wrap;rounded=0;fontFamily=Helvetica;fontSize=12;" parent="1" vertex="1">
          <mxGeometry x="380" width="60" height="30" as="geometry" />
        </mxCell>
        <mxCell id="mzly6rjB0d2bTAhVQwtF-24" value="A" style="text;html=1;strokeColor=none;fillColor=none;align=center;verticalAlign=middle;whiteSpace=wrap;rounded=0;fontFamily=Helvetica;fontSize=12;" parent="1" vertex="1">
          <mxGeometry x="60" y="50" width="60" height="30" as="geometry" />
        </mxCell>
        <mxCell id="mzly6rjB0d2bTAhVQwtF-25" value="B" style="text;html=1;strokeColor=none;fillColor=none;align=center;verticalAlign=middle;whiteSpace=wrap;rounded=0;fontFamily=Helvetica;fontSize=12;" parent="1" vertex="1">
          <mxGeometry x="60" y="125" width="60" height="30" as="geometry" />
        </mxCell>
        <mxCell id="mzly6rjB0d2bTAhVQwtF-26" value="C" style="text;html=1;strokeColor=none;fillColor=none;align=center;verticalAlign=middle;whiteSpace=wrap;rounded=0;fontFamily=Helvetica;fontSize=12;" parent="1" vertex="1">
          <mxGeometry x="60" y="218" width="60" height="30" as="geometry" />
        </mxCell>
        <mxCell id="mzly6rjB0d2bTAhVQwtF-27" value="D" style="text;html=1;strokeColor=none;fillColor=none;align=center;verticalAlign=middle;whiteSpace=wrap;rounded=0;fontFamily=Helvetica;fontSize=12;" parent="1" vertex="1">
          <mxGeometry x="60" y="347" width="60" height="30" as="geometry" />
        </mxCell>
        <mxCell id="mzly6rjB0d2bTAhVQwtF-28" value="E" style="text;html=1;strokeColor=none;fillColor=none;align=center;verticalAlign=middle;whiteSpace=wrap;rounded=0;fontFamily=Helvetica;fontSize=12;" parent="1" vertex="1">
          <mxGeometry x="60" y="411" width="60" height="30" as="geometry" />
        </mxCell>
        <mxCell id="mzly6rjB0d2bTAhVQwtF-29" value="F" style="text;html=1;strokeColor=none;fillColor=none;align=center;verticalAlign=middle;whiteSpace=wrap;rounded=0;fontFamily=Helvetica;fontSize=12;" parent="1" vertex="1">
          <mxGeometry x="60" y="493" width="60" height="30" as="geometry" />
        </mxCell>
        <mxCell id="WTmnEbOaFGeAtniKWUdR-5" value="" style="endArrow=classic;html=1;rounded=0;entryX=0.5;entryY=0;entryDx=0;entryDy=0;" parent="1" source="LZAnv2CxnYplD1Uf9KJ6-23" target="mzly6rjB0d2bTAhVQwtF-5" edge="1">
          <mxGeometry width="50" height="50" relative="1" as="geometry">
            <mxPoint x="300" y="286.0000000000001" as="sourcePoint" />
            <mxPoint x="425" y="357" as="targetPoint" />
          </mxGeometry>
        </mxCell>
        <mxCell id="WTmnEbOaFGeAtniKWUdR-7" value="" style="endArrow=classic;html=1;rounded=0;exitX=0.5;exitY=1;exitDx=0;exitDy=0;entryX=0.5;entryY=0;entryDx=0;entryDy=0;" parent="1" edge="1">
          <mxGeometry width="50" height="50" relative="1" as="geometry">
            <mxPoint x="202" y="450" as="sourcePoint" />
            <mxPoint x="202" y="480" as="targetPoint" />
          </mxGeometry>
        </mxCell>
        <mxCell id="WTmnEbOaFGeAtniKWUdR-8" value="" style="endArrow=none;html=1;rounded=0;entryX=0.511;entryY=0.968;entryDx=0;entryDy=0;entryPerimeter=0;" parent="1" edge="1">
          <mxGeometry width="50" height="50" relative="1" as="geometry">
            <mxPoint x="203" y="548" as="sourcePoint" />
            <mxPoint x="203.0999999999999" y="518.72" as="targetPoint" />
          </mxGeometry>
        </mxCell>
        <mxCell id="LZAnv2CxnYplD1Uf9KJ6-1" value="" style="shape=table;html=1;whiteSpace=wrap;startSize=0;container=1;collapsible=0;childLayout=tableLayout;" parent="1" vertex="1">
          <mxGeometry x="228.5" y="113.25" width="142" height="53.5" as="geometry" />
        </mxCell>
        <mxCell id="LZAnv2CxnYplD1Uf9KJ6-2" value="" style="shape=tableRow;horizontal=0;startSize=0;swimlaneHead=0;swimlaneBody=0;top=0;left=0;bottom=0;right=0;collapsible=0;dropTarget=0;fillColor=none;points=[[0,0.5],[1,0.5]];portConstraint=eastwest;" parent="LZAnv2CxnYplD1Uf9KJ6-1" vertex="1">
          <mxGeometry width="142" height="7" as="geometry" />
        </mxCell>
        <mxCell id="LZAnv2CxnYplD1Uf9KJ6-3" value="" style="shape=partialRectangle;html=1;whiteSpace=wrap;connectable=0;fillColor=none;top=0;left=0;bottom=0;right=0;overflow=hidden;" parent="LZAnv2CxnYplD1Uf9KJ6-2" vertex="1">
          <mxGeometry width="84" height="7" as="geometry">
            <mxRectangle width="84" height="7" as="alternateBounds" />
          </mxGeometry>
        </mxCell>
        <mxCell id="LZAnv2CxnYplD1Uf9KJ6-4" value="" style="shape=partialRectangle;html=1;whiteSpace=wrap;connectable=0;fillColor=none;top=0;left=0;bottom=0;right=0;overflow=hidden;" parent="LZAnv2CxnYplD1Uf9KJ6-2" vertex="1">
          <mxGeometry x="84" width="38" height="7" as="geometry">
            <mxRectangle width="38" height="7" as="alternateBounds" />
          </mxGeometry>
        </mxCell>
        <mxCell id="LZAnv2CxnYplD1Uf9KJ6-5" value="" style="shape=partialRectangle;html=1;whiteSpace=wrap;connectable=0;fillColor=none;top=0;left=0;bottom=0;right=0;overflow=hidden;" parent="LZAnv2CxnYplD1Uf9KJ6-2" vertex="1">
          <mxGeometry x="122" width="20" height="7" as="geometry">
            <mxRectangle width="20" height="7" as="alternateBounds" />
          </mxGeometry>
        </mxCell>
        <mxCell id="LZAnv2CxnYplD1Uf9KJ6-6" value="" style="shape=tableRow;horizontal=0;startSize=0;swimlaneHead=0;swimlaneBody=0;top=0;left=0;bottom=0;right=0;collapsible=0;dropTarget=0;fillColor=none;points=[[0,0.5],[1,0.5]];portConstraint=eastwest;" parent="LZAnv2CxnYplD1Uf9KJ6-1" vertex="1">
          <mxGeometry y="7" width="142" height="38" as="geometry" />
        </mxCell>
        <mxCell id="LZAnv2CxnYplD1Uf9KJ6-7" value="&lt;span&gt;RA := A&lt;/span&gt;&lt;br&gt;&lt;span&gt;RB := B&lt;/span&gt;" style="shape=partialRectangle;html=1;whiteSpace=wrap;connectable=0;fillColor=none;top=0;left=0;bottom=0;right=0;overflow=hidden;" parent="LZAnv2CxnYplD1Uf9KJ6-6" vertex="1">
          <mxGeometry width="84" height="38" as="geometry">
            <mxRectangle width="84" height="38" as="alternateBounds" />
          </mxGeometry>
        </mxCell>
        <mxCell id="LZAnv2CxnYplD1Uf9KJ6-8" value="Y1&lt;br&gt;Y3" style="shape=partialRectangle;html=1;whiteSpace=wrap;connectable=0;fillColor=none;top=0;left=0;bottom=0;right=0;overflow=hidden;" parent="LZAnv2CxnYplD1Uf9KJ6-6" vertex="1">
          <mxGeometry x="84" width="38" height="38" as="geometry">
            <mxRectangle width="38" height="38" as="alternateBounds" />
          </mxGeometry>
        </mxCell>
        <mxCell id="LZAnv2CxnYplD1Uf9KJ6-9" value="" style="shape=partialRectangle;html=1;whiteSpace=wrap;connectable=0;fillColor=none;top=0;left=0;bottom=0;right=0;overflow=hidden;" parent="LZAnv2CxnYplD1Uf9KJ6-6" vertex="1">
          <mxGeometry x="122" width="20" height="38" as="geometry">
            <mxRectangle width="20" height="38" as="alternateBounds" />
          </mxGeometry>
        </mxCell>
        <mxCell id="LZAnv2CxnYplD1Uf9KJ6-10" value="" style="shape=tableRow;horizontal=0;startSize=0;swimlaneHead=0;swimlaneBody=0;top=0;left=0;bottom=0;right=0;collapsible=0;dropTarget=0;fillColor=none;points=[[0,0.5],[1,0.5]];portConstraint=eastwest;" parent="LZAnv2CxnYplD1Uf9KJ6-1" vertex="1">
          <mxGeometry y="45" width="142" height="9" as="geometry" />
        </mxCell>
        <mxCell id="LZAnv2CxnYplD1Uf9KJ6-11" value="" style="shape=partialRectangle;html=1;whiteSpace=wrap;connectable=0;fillColor=none;top=0;left=0;bottom=0;right=0;overflow=hidden;" parent="LZAnv2CxnYplD1Uf9KJ6-10" vertex="1">
          <mxGeometry width="84" height="9" as="geometry">
            <mxRectangle width="84" height="9" as="alternateBounds" />
          </mxGeometry>
        </mxCell>
        <mxCell id="LZAnv2CxnYplD1Uf9KJ6-12" value="" style="shape=partialRectangle;html=1;whiteSpace=wrap;connectable=0;fillColor=none;top=0;left=0;bottom=0;right=0;overflow=hidden;" parent="LZAnv2CxnYplD1Uf9KJ6-10" vertex="1">
          <mxGeometry x="84" width="38" height="9" as="geometry">
            <mxRectangle width="38" height="9" as="alternateBounds" />
          </mxGeometry>
        </mxCell>
        <mxCell id="LZAnv2CxnYplD1Uf9KJ6-13" value="" style="shape=partialRectangle;html=1;whiteSpace=wrap;connectable=0;fillColor=none;top=0;left=0;bottom=0;right=0;overflow=hidden;pointerEvents=1;" parent="LZAnv2CxnYplD1Uf9KJ6-10" vertex="1">
          <mxGeometry x="122" width="20" height="9" as="geometry">
            <mxRectangle width="20" height="9" as="alternateBounds" />
          </mxGeometry>
        </mxCell>
        <mxCell id="LZAnv2CxnYplD1Uf9KJ6-14" value="" style="shape=table;html=1;whiteSpace=wrap;startSize=0;container=1;collapsible=0;childLayout=tableLayout;" parent="1" vertex="1">
          <mxGeometry x="214.75" y="192" width="170.5" height="86" as="geometry" />
        </mxCell>
        <mxCell id="LZAnv2CxnYplD1Uf9KJ6-15" value="" style="shape=tableRow;horizontal=0;startSize=0;swimlaneHead=0;swimlaneBody=0;top=0;left=0;bottom=0;right=0;collapsible=0;dropTarget=0;fillColor=none;points=[[0,0.5],[1,0.5]];portConstraint=eastwest;" parent="LZAnv2CxnYplD1Uf9KJ6-14" vertex="1">
          <mxGeometry width="170.5" height="13" as="geometry" />
        </mxCell>
        <mxCell id="LZAnv2CxnYplD1Uf9KJ6-16" value="" style="shape=partialRectangle;html=1;whiteSpace=wrap;connectable=0;fillColor=none;top=0;left=0;bottom=0;right=0;overflow=hidden;" parent="LZAnv2CxnYplD1Uf9KJ6-15" vertex="1">
          <mxGeometry width="106" height="13" as="geometry">
            <mxRectangle width="106" height="13" as="alternateBounds" />
          </mxGeometry>
        </mxCell>
        <mxCell id="LZAnv2CxnYplD1Uf9KJ6-17" value="" style="shape=partialRectangle;html=1;whiteSpace=wrap;connectable=0;fillColor=none;top=0;left=0;bottom=0;right=0;overflow=hidden;" parent="LZAnv2CxnYplD1Uf9KJ6-15" vertex="1">
          <mxGeometry x="106" width="31" height="13" as="geometry">
            <mxRectangle width="31" height="13" as="alternateBounds" />
          </mxGeometry>
        </mxCell>
        <mxCell id="LZAnv2CxnYplD1Uf9KJ6-18" value="" style="shape=partialRectangle;html=1;whiteSpace=wrap;connectable=0;fillColor=none;top=0;left=0;bottom=0;right=0;overflow=hidden;" parent="LZAnv2CxnYplD1Uf9KJ6-15" vertex="1">
          <mxGeometry x="137" width="34" height="13" as="geometry">
            <mxRectangle width="34" height="13" as="alternateBounds" />
          </mxGeometry>
        </mxCell>
        <mxCell id="LZAnv2CxnYplD1Uf9KJ6-19" value="" style="shape=tableRow;horizontal=0;startSize=0;swimlaneHead=0;swimlaneBody=0;top=0;left=0;bottom=0;right=0;collapsible=0;dropTarget=0;fillColor=none;points=[[0,0.5],[1,0.5]];portConstraint=eastwest;" parent="LZAnv2CxnYplD1Uf9KJ6-14" vertex="1">
          <mxGeometry y="13" width="170.5" height="60" as="geometry" />
        </mxCell>
        <mxCell id="LZAnv2CxnYplD1Uf9KJ6-20" value="&lt;span&gt;RR := RB * 2^3 + 0&lt;/span&gt;&lt;br&gt;&lt;span&gt;i := A&lt;br&gt;&lt;/span&gt;TCF := 0&lt;br&gt;TOF := 0&lt;span&gt;&lt;br&gt;&lt;/span&gt;" style="shape=partialRectangle;html=1;whiteSpace=wrap;connectable=0;fillColor=none;top=0;left=0;bottom=0;right=0;overflow=hidden;" parent="LZAnv2CxnYplD1Uf9KJ6-19" vertex="1">
          <mxGeometry width="106" height="60" as="geometry">
            <mxRectangle width="106" height="60" as="alternateBounds" />
          </mxGeometry>
        </mxCell>
        <mxCell id="LZAnv2CxnYplD1Uf9KJ6-21" value="Y14&lt;br&gt;Y5&lt;br&gt;Y9&lt;br&gt;Y11" style="shape=partialRectangle;html=1;whiteSpace=wrap;connectable=0;fillColor=none;top=0;left=0;bottom=0;right=0;overflow=hidden;" parent="LZAnv2CxnYplD1Uf9KJ6-19" vertex="1">
          <mxGeometry x="106" width="31" height="60" as="geometry">
            <mxRectangle width="31" height="60" as="alternateBounds" />
          </mxGeometry>
        </mxCell>
        <mxCell id="LZAnv2CxnYplD1Uf9KJ6-22" value="FC&lt;br&gt;SKO" style="shape=partialRectangle;html=1;whiteSpace=wrap;connectable=0;fillColor=none;top=0;left=0;bottom=0;right=0;overflow=hidden;" parent="LZAnv2CxnYplD1Uf9KJ6-19" vertex="1">
          <mxGeometry x="137" width="34" height="60" as="geometry">
            <mxRectangle width="34" height="60" as="alternateBounds" />
          </mxGeometry>
        </mxCell>
        <mxCell id="LZAnv2CxnYplD1Uf9KJ6-23" value="" style="shape=tableRow;horizontal=0;startSize=0;swimlaneHead=0;swimlaneBody=0;top=0;left=0;bottom=0;right=0;collapsible=0;dropTarget=0;fillColor=none;points=[[0,0.5],[1,0.5]];portConstraint=eastwest;" parent="LZAnv2CxnYplD1Uf9KJ6-14" vertex="1">
          <mxGeometry y="73" width="170.5" height="13" as="geometry" />
        </mxCell>
        <mxCell id="LZAnv2CxnYplD1Uf9KJ6-24" value="" style="shape=partialRectangle;html=1;whiteSpace=wrap;connectable=0;fillColor=none;top=0;left=0;bottom=0;right=0;overflow=hidden;" parent="LZAnv2CxnYplD1Uf9KJ6-23" vertex="1">
          <mxGeometry width="106" height="13" as="geometry">
            <mxRectangle width="106" height="13" as="alternateBounds" />
          </mxGeometry>
        </mxCell>
        <mxCell id="LZAnv2CxnYplD1Uf9KJ6-25" value="" style="shape=partialRectangle;html=1;whiteSpace=wrap;connectable=0;fillColor=none;top=0;left=0;bottom=0;right=0;overflow=hidden;" parent="LZAnv2CxnYplD1Uf9KJ6-23" vertex="1">
          <mxGeometry x="106" width="31" height="13" as="geometry">
            <mxRectangle width="31" height="13" as="alternateBounds" />
          </mxGeometry>
        </mxCell>
        <mxCell id="LZAnv2CxnYplD1Uf9KJ6-26" value="" style="shape=partialRectangle;html=1;whiteSpace=wrap;connectable=0;fillColor=none;top=0;left=0;bottom=0;right=0;overflow=hidden;pointerEvents=1;" parent="LZAnv2CxnYplD1Uf9KJ6-23" vertex="1">
          <mxGeometry x="137" width="34" height="13" as="geometry">
            <mxRectangle width="34" height="13" as="alternateBounds" />
          </mxGeometry>
        </mxCell>
        <mxCell id="LZAnv2CxnYplD1Uf9KJ6-27" value="" style="shape=table;html=1;whiteSpace=wrap;startSize=0;container=1;collapsible=0;childLayout=tableLayout;" parent="1" vertex="1">
          <mxGeometry x="125" y="392" width="152" height="62" as="geometry" />
        </mxCell>
        <mxCell id="LZAnv2CxnYplD1Uf9KJ6-28" value="" style="shape=tableRow;horizontal=0;startSize=0;swimlaneHead=0;swimlaneBody=0;top=0;left=0;bottom=0;right=0;collapsible=0;dropTarget=0;fillColor=none;points=[[0,0.5],[1,0.5]];portConstraint=eastwest;" parent="LZAnv2CxnYplD1Uf9KJ6-27" vertex="1">
          <mxGeometry width="152" height="11" as="geometry" />
        </mxCell>
        <mxCell id="LZAnv2CxnYplD1Uf9KJ6-29" value="" style="shape=partialRectangle;html=1;whiteSpace=wrap;connectable=0;fillColor=none;top=0;left=0;bottom=0;right=0;overflow=hidden;" parent="LZAnv2CxnYplD1Uf9KJ6-28" vertex="1">
          <mxGeometry width="102" height="11" as="geometry">
            <mxRectangle width="102" height="11" as="alternateBounds" />
          </mxGeometry>
        </mxCell>
        <mxCell id="LZAnv2CxnYplD1Uf9KJ6-30" value="" style="shape=partialRectangle;html=1;whiteSpace=wrap;connectable=0;fillColor=none;top=0;left=0;bottom=0;right=0;overflow=hidden;" parent="LZAnv2CxnYplD1Uf9KJ6-28" vertex="1">
          <mxGeometry x="102" width="33" height="11" as="geometry">
            <mxRectangle width="33" height="11" as="alternateBounds" />
          </mxGeometry>
        </mxCell>
        <mxCell id="LZAnv2CxnYplD1Uf9KJ6-31" value="" style="shape=partialRectangle;html=1;whiteSpace=wrap;connectable=0;fillColor=none;top=0;left=0;bottom=0;right=0;overflow=hidden;" parent="LZAnv2CxnYplD1Uf9KJ6-28" vertex="1">
          <mxGeometry x="135" width="17" height="11" as="geometry">
            <mxRectangle width="17" height="11" as="alternateBounds" />
          </mxGeometry>
        </mxCell>
        <mxCell id="LZAnv2CxnYplD1Uf9KJ6-32" value="" style="shape=tableRow;horizontal=0;startSize=0;swimlaneHead=0;swimlaneBody=0;top=0;left=0;bottom=0;right=0;collapsible=0;dropTarget=0;fillColor=none;points=[[0,0.5],[1,0.5]];portConstraint=eastwest;" parent="LZAnv2CxnYplD1Uf9KJ6-27" vertex="1">
          <mxGeometry y="11" width="152" height="40" as="geometry" />
        </mxCell>
        <mxCell id="LZAnv2CxnYplD1Uf9KJ6-33" value="&lt;font style=&quot;font-size: 10px&quot;&gt;&lt;span&gt;TCF := RR[3]&lt;/span&gt;&lt;br&gt;&lt;span&gt;TOF := RR[2]&amp;nbsp;&lt;/span&gt;&lt;span style=&quot;color: rgb(17 , 17 , 17) ; background-color: rgb(255 , 255 , 255)&quot;&gt;&lt;font face=&quot;u2000&quot;&gt;⊻&amp;nbsp;&lt;/font&gt;RR[3]&lt;/span&gt;&lt;/font&gt;" style="shape=partialRectangle;html=1;whiteSpace=wrap;connectable=0;fillColor=none;top=0;left=0;bottom=0;right=0;overflow=hidden;" parent="LZAnv2CxnYplD1Uf9KJ6-32" vertex="1">
          <mxGeometry width="102" height="40" as="geometry">
            <mxRectangle width="102" height="40" as="alternateBounds" />
          </mxGeometry>
        </mxCell>
        <mxCell id="LZAnv2CxnYplD1Uf9KJ6-34" value="Y8&lt;br&gt;Y10" style="shape=partialRectangle;html=1;whiteSpace=wrap;connectable=0;fillColor=none;top=0;left=0;bottom=0;right=0;overflow=hidden;" parent="LZAnv2CxnYplD1Uf9KJ6-32" vertex="1">
          <mxGeometry x="102" width="33" height="40" as="geometry">
            <mxRectangle width="33" height="40" as="alternateBounds" />
          </mxGeometry>
        </mxCell>
        <mxCell id="LZAnv2CxnYplD1Uf9KJ6-35" value="" style="shape=partialRectangle;html=1;whiteSpace=wrap;connectable=0;fillColor=none;top=0;left=0;bottom=0;right=0;overflow=hidden;" parent="LZAnv2CxnYplD1Uf9KJ6-32" vertex="1">
          <mxGeometry x="135" width="17" height="40" as="geometry">
            <mxRectangle width="17" height="40" as="alternateBounds" />
          </mxGeometry>
        </mxCell>
        <mxCell id="LZAnv2CxnYplD1Uf9KJ6-36" value="" style="shape=tableRow;horizontal=0;startSize=0;swimlaneHead=0;swimlaneBody=0;top=0;left=0;bottom=0;right=0;collapsible=0;dropTarget=0;fillColor=none;points=[[0,0.5],[1,0.5]];portConstraint=eastwest;" parent="LZAnv2CxnYplD1Uf9KJ6-27" vertex="1">
          <mxGeometry y="51" width="152" height="11" as="geometry" />
        </mxCell>
        <mxCell id="LZAnv2CxnYplD1Uf9KJ6-37" value="" style="shape=partialRectangle;html=1;whiteSpace=wrap;connectable=0;fillColor=none;top=0;left=0;bottom=0;right=0;overflow=hidden;" parent="LZAnv2CxnYplD1Uf9KJ6-36" vertex="1">
          <mxGeometry width="102" height="11" as="geometry">
            <mxRectangle width="102" height="11" as="alternateBounds" />
          </mxGeometry>
        </mxCell>
        <mxCell id="LZAnv2CxnYplD1Uf9KJ6-38" value="" style="shape=partialRectangle;html=1;whiteSpace=wrap;connectable=0;fillColor=none;top=0;left=0;bottom=0;right=0;overflow=hidden;" parent="LZAnv2CxnYplD1Uf9KJ6-36" vertex="1">
          <mxGeometry x="102" width="33" height="11" as="geometry">
            <mxRectangle width="33" height="11" as="alternateBounds" />
          </mxGeometry>
        </mxCell>
        <mxCell id="LZAnv2CxnYplD1Uf9KJ6-39" value="" style="shape=partialRectangle;html=1;whiteSpace=wrap;connectable=0;fillColor=none;top=0;left=0;bottom=0;right=0;overflow=hidden;pointerEvents=1;" parent="LZAnv2CxnYplD1Uf9KJ6-36" vertex="1">
          <mxGeometry x="135" width="17" height="11" as="geometry">
            <mxRectangle width="17" height="11" as="alternateBounds" />
          </mxGeometry>
        </mxCell>
        <mxCell id="LZAnv2CxnYplD1Uf9KJ6-40" value="" style="shape=table;html=1;whiteSpace=wrap;startSize=0;container=1;collapsible=0;childLayout=tableLayout;fontSize=10;" parent="1" vertex="1">
          <mxGeometry x="138.5" y="482" width="125" height="55" as="geometry" />
        </mxCell>
        <mxCell id="LZAnv2CxnYplD1Uf9KJ6-41" value="" style="shape=tableRow;horizontal=0;startSize=0;swimlaneHead=0;swimlaneBody=0;top=0;left=0;bottom=0;right=0;collapsible=0;dropTarget=0;fillColor=none;points=[[0,0.5],[1,0.5]];portConstraint=eastwest;fontSize=10;" parent="LZAnv2CxnYplD1Uf9KJ6-40" vertex="1">
          <mxGeometry width="125" height="11" as="geometry" />
        </mxCell>
        <mxCell id="LZAnv2CxnYplD1Uf9KJ6-42" value="" style="shape=partialRectangle;html=1;whiteSpace=wrap;connectable=0;fillColor=none;top=0;left=0;bottom=0;right=0;overflow=hidden;fontSize=10;" parent="LZAnv2CxnYplD1Uf9KJ6-41" vertex="1">
          <mxGeometry width="82" height="11" as="geometry">
            <mxRectangle width="82" height="11" as="alternateBounds" />
          </mxGeometry>
        </mxCell>
        <mxCell id="LZAnv2CxnYplD1Uf9KJ6-43" value="" style="shape=partialRectangle;html=1;whiteSpace=wrap;connectable=0;fillColor=none;top=0;left=0;bottom=0;right=0;overflow=hidden;fontSize=10;" parent="LZAnv2CxnYplD1Uf9KJ6-41" vertex="1">
          <mxGeometry x="82" width="25" height="11" as="geometry">
            <mxRectangle width="25" height="11" as="alternateBounds" />
          </mxGeometry>
        </mxCell>
        <mxCell id="LZAnv2CxnYplD1Uf9KJ6-44" value="" style="shape=partialRectangle;html=1;whiteSpace=wrap;connectable=0;fillColor=none;top=0;left=0;bottom=0;right=0;overflow=hidden;fontSize=10;" parent="LZAnv2CxnYplD1Uf9KJ6-41" vertex="1">
          <mxGeometry x="107" width="18" height="11" as="geometry">
            <mxRectangle width="18" height="11" as="alternateBounds" />
          </mxGeometry>
        </mxCell>
        <mxCell id="LZAnv2CxnYplD1Uf9KJ6-45" value="" style="shape=tableRow;horizontal=0;startSize=0;swimlaneHead=0;swimlaneBody=0;top=0;left=0;bottom=0;right=0;collapsible=0;dropTarget=0;fillColor=none;points=[[0,0.5],[1,0.5]];portConstraint=eastwest;fontSize=10;" parent="LZAnv2CxnYplD1Uf9KJ6-40" vertex="1">
          <mxGeometry y="11" width="125" height="33" as="geometry" />
        </mxCell>
        <mxCell id="LZAnv2CxnYplD1Uf9KJ6-46" value="&lt;font style=&quot;font-size: 10px&quot;&gt;RR := RR * 2^-1&lt;br&gt;i := i - 1&lt;/font&gt;" style="shape=partialRectangle;html=1;whiteSpace=wrap;connectable=0;fillColor=none;top=0;left=0;bottom=0;right=0;overflow=hidden;fontSize=10;" parent="LZAnv2CxnYplD1Uf9KJ6-45" vertex="1">
          <mxGeometry width="82" height="33" as="geometry">
            <mxRectangle width="82" height="33" as="alternateBounds" />
          </mxGeometry>
        </mxCell>
        <mxCell id="LZAnv2CxnYplD1Uf9KJ6-47" value="Y6" style="shape=partialRectangle;html=1;whiteSpace=wrap;connectable=0;fillColor=none;top=0;left=0;bottom=0;right=0;overflow=hidden;fontSize=10;" parent="LZAnv2CxnYplD1Uf9KJ6-45" vertex="1">
          <mxGeometry x="82" width="25" height="33" as="geometry">
            <mxRectangle width="25" height="33" as="alternateBounds" />
          </mxGeometry>
        </mxCell>
        <mxCell id="LZAnv2CxnYplD1Uf9KJ6-48" value="FC" style="shape=partialRectangle;html=1;whiteSpace=wrap;connectable=0;fillColor=none;top=0;left=0;bottom=0;right=0;overflow=hidden;fontSize=10;" parent="LZAnv2CxnYplD1Uf9KJ6-45" vertex="1">
          <mxGeometry x="107" width="18" height="33" as="geometry">
            <mxRectangle width="18" height="33" as="alternateBounds" />
          </mxGeometry>
        </mxCell>
        <mxCell id="LZAnv2CxnYplD1Uf9KJ6-49" value="" style="shape=tableRow;horizontal=0;startSize=0;swimlaneHead=0;swimlaneBody=0;top=0;left=0;bottom=0;right=0;collapsible=0;dropTarget=0;fillColor=none;points=[[0,0.5],[1,0.5]];portConstraint=eastwest;fontSize=10;" parent="LZAnv2CxnYplD1Uf9KJ6-40" vertex="1">
          <mxGeometry y="44" width="125" height="11" as="geometry" />
        </mxCell>
        <mxCell id="LZAnv2CxnYplD1Uf9KJ6-50" value="" style="shape=partialRectangle;html=1;whiteSpace=wrap;connectable=0;fillColor=none;top=0;left=0;bottom=0;right=0;overflow=hidden;fontSize=10;" parent="LZAnv2CxnYplD1Uf9KJ6-49" vertex="1">
          <mxGeometry width="82" height="11" as="geometry">
            <mxRectangle width="82" height="11" as="alternateBounds" />
          </mxGeometry>
        </mxCell>
        <mxCell id="LZAnv2CxnYplD1Uf9KJ6-51" value="" style="shape=partialRectangle;html=1;whiteSpace=wrap;connectable=0;fillColor=none;top=0;left=0;bottom=0;right=0;overflow=hidden;fontSize=10;" parent="LZAnv2CxnYplD1Uf9KJ6-49" vertex="1">
          <mxGeometry x="82" width="25" height="11" as="geometry">
            <mxRectangle width="25" height="11" as="alternateBounds" />
          </mxGeometry>
        </mxCell>
        <mxCell id="LZAnv2CxnYplD1Uf9KJ6-52" value="" style="shape=partialRectangle;html=1;whiteSpace=wrap;connectable=0;fillColor=none;top=0;left=0;bottom=0;right=0;overflow=hidden;pointerEvents=1;fontSize=10;" parent="LZAnv2CxnYplD1Uf9KJ6-49" vertex="1">
          <mxGeometry x="107" width="18" height="11" as="geometry">
            <mxRectangle width="18" height="11" as="alternateBounds" />
          </mxGeometry>
        </mxCell>
      </root>
    </mxGraphModel>
  </diagram>
</mxfile>
